<svg width="23" height="22" viewBox="0 0 23 22" fill="none" xmlns="http://www.w3.org/2000/svg">
<path d="M15.5166 13C15.5166 13.8284 16.1882 14.5 17.0166 14.5C17.845 14.5 18.5166 13.8284 18.5166 13C18.5166 12.1716 17.845 11.5 17.0166 11.5C16.1882 11.5 15.5166 12.1716 15.5166 13Z" stroke="#393F43" stroke-width="1.5"/>
<path d="M18.4166 7C18.4822 6.67689 18.5166 6.34247 18.5166 6C18.5166 3.23858 16.278 1 13.5166 1C10.7552 1 8.5166 3.23858 8.5166 6C8.5166 6.34247 8.55103 6.67689 8.61662 7" stroke="#393F43" stroke-width="1.5"/>
<path d="M6.5166 6.99324H15.5166C18.345 6.99324 19.7592 6.99324 20.6379 7.87234C21.5166 8.75145 21.5166 10.1663 21.5166 12.9961V14.9971C21.5166 17.8269 21.5166 19.2418 20.6379 20.1209C19.7592 21 18.345 21 15.5166 21H9.5166C5.74537 21 3.85975 21 2.68817 19.8279C1.5166 18.6557 1.5166 16.7692 1.5166 12.9961V10.9952C1.5166 7.22211 1.5166 5.33558 2.68817 4.16344C3.63126 3.2199 5.03703 3.03589 7.5166 3H9.5166" stroke="#393F43" stroke-width="1.5" stroke-linecap="round"/>
</svg>
