<svg width="16" height="17" viewBox="0 0 16 17" fill="none" xmlns="http://www.w3.org/2000/svg">
<path d="M1.83322 8.93333C1.1222 7.69354 0.778886 6.68117 0.571878 5.65497C0.265717 4.13724 0.966358 2.65467 2.12704 1.70867C2.61759 1.30885 3.17992 1.44545 3.47 1.96586L4.12489 3.14074C4.64397 4.07199 4.90351 4.53761 4.85203 5.03126C4.80055 5.5249 4.45053 5.92696 3.75048 6.73107L1.83322 8.93333ZM1.83322 8.93333C3.27238 11.4428 5.53088 13.7025 8.04323 15.1433M8.04323 15.1433C9.28302 15.8544 10.2954 16.1977 11.3216 16.4047C12.8393 16.7108 14.3219 16.0102 15.2679 14.8495C15.6677 14.359 15.5311 13.7966 15.0107 13.5066L13.8358 12.8517C12.9046 12.3326 12.439 12.0731 11.9453 12.1245C11.4517 12.176 11.0496 12.526 10.2455 13.2261L8.04323 15.1433Z" stroke="#0054DC" stroke-linejoin="round"/>
</svg>
