<svg width="38" height="39" viewBox="0 0 38 39" fill="none" xmlns="http://www.w3.org/2000/svg">
<path d="M18.7683 0.948639C23.7505 0.94868 28.4386 2.88635 31.9587 6.41251L32.2849 6.74551C35.6044 10.2256 37.4226 14.7764 37.4226 19.6029C37.4226 24.4295 35.6042 28.9742 32.2849 32.4594L31.9587 32.7934C28.4385 36.3196 23.7506 38.2572 18.7683 38.2572C13.9417 38.2572 9.39097 36.4391 5.91089 33.1195L5.57788 32.7934C2.05179 29.2672 0.114014 24.5853 0.114014 19.6029C0.114057 14.6206 2.05168 9.93273 5.57788 6.41251L5.91089 6.08633C9.39096 2.76679 13.9417 0.948667 18.7683 0.948639ZM18.3035 38.1723L18.7683 38.1781C18.5627 38.1781 18.3576 38.1731 18.1531 38.1664C18.2032 38.168 18.2533 38.1711 18.3035 38.1723ZM17.4001 38.1283C17.602 38.1429 17.8045 38.1523 18.0076 38.1606C17.8045 38.1523 17.602 38.1429 17.4001 38.1283ZM26.1521 27.7221C25.8701 27.9769 25.5793 28.2077 25.2781 28.4311L25.2556 28.4555L25.2156 28.4926C25.1897 28.512 25.1625 28.5228 25.1355 28.5346L25.1365 28.5356C23.4306 29.7643 21.4117 30.4726 19.2849 30.5707V37.2152C23.6238 37.0897 27.6956 35.4002 30.8533 32.4232L26.1521 27.7221ZM6.68823 32.4174C9.84587 35.4003 13.9184 37.0839 18.2576 37.2094V30.5648C16.1452 30.4669 14.1465 29.7662 12.4421 28.558C12.3966 28.5446 12.3522 28.5263 12.3123 28.4945V28.4955C12.268 28.4659 12.2383 28.4291 12.2156 28.4008C11.9317 28.189 11.6523 27.9662 11.3826 27.7231L6.68823 32.4174ZM22.4568 36.9184C22.3341 36.9443 22.2111 36.9692 22.0876 36.9926C22.3441 36.9441 22.599 36.8901 22.8523 36.8305L22.4568 36.9184ZM11.9998 35.9594C12.048 35.9793 12.0969 35.9975 12.1453 36.017C11.9721 35.9471 11.7995 35.8756 11.6287 35.8002L11.9998 35.9594ZM10.8972 35.4574C11.0179 35.5175 11.1394 35.576 11.2615 35.6332L10.8982 35.4574C10.7774 35.3973 10.6573 35.3358 10.5378 35.2729L10.8972 35.4574ZM9.83081 34.8793C9.9473 34.9477 10.0645 35.0148 10.1824 35.0805L9.83179 34.8793C9.71528 34.8109 9.59918 34.7415 9.48413 34.6703L9.83081 34.8793ZM7.65308 33.3676C8.13261 33.7565 8.62898 34.1188 9.14136 34.4525L8.80347 34.226C8.41009 33.9566 8.02636 33.6703 7.65308 33.3676ZM6.57495 32.4203C6.92101 32.7502 7.27887 33.0635 7.64624 33.3617C7.27869 33.0634 6.92114 32.7493 6.57495 32.4193V32.4203ZM5.10718 32.1869C5.16381 32.2483 5.22052 32.3097 5.27808 32.3705C5.2205 32.3098 5.16383 32.2483 5.10718 32.1869ZM4.75366 31.7934C4.81361 31.8621 4.87425 31.9304 4.9353 31.9984C4.87423 31.9304 4.81363 31.8621 4.75366 31.7934ZM1.15601 20.1195C1.28154 24.4581 2.97046 28.5303 5.94702 31.6879L10.6472 26.9877C8.91617 25.0898 7.91857 22.6848 7.80054 20.1195H1.15601ZM29.7361 20.1195C29.618 22.685 28.6197 25.0897 26.8884 26.9877L31.5876 31.6869C34.5644 28.5293 36.2541 24.4583 36.3796 20.1195H29.7361ZM4.43335 31.4164C4.47308 31.4645 4.51322 31.5122 4.55347 31.56C4.51321 31.5122 4.47309 31.4645 4.43335 31.4164ZM17.8308 30.4574C17.8832 30.4619 17.9355 30.4664 17.988 30.4701C17.9355 30.4664 17.8832 30.4619 17.8308 30.4574ZM17.5447 30.4311C17.5801 30.4351 17.6157 30.4372 17.6511 30.4408C17.5993 30.4355 17.5475 30.4303 17.4958 30.4242L17.5447 30.4311ZM16.3816 30.2348C16.5089 30.2635 16.6368 30.2897 16.7654 30.3139L16.3816 30.2338C16.2543 30.2051 16.1276 30.1743 16.0017 30.141L16.3816 30.2348ZM18.4587 10.1606C13.175 10.1608 8.89158 14.4443 8.89136 19.7279C8.89136 25.0118 13.1748 29.296 18.4587 29.2963C23.7429 29.2963 28.0271 25.0119 28.0271 19.7279C28.0269 14.4441 23.7427 10.1606 18.4587 10.1606ZM8.36499 22.8783C8.41097 23.0246 8.46031 23.1698 8.51245 23.3139C8.4594 23.1673 8.40977 23.0194 8.36304 22.8705L8.36499 22.8783ZM29.5222 21.3979C29.5443 21.2644 29.5635 21.1302 29.5808 20.9955C29.5634 21.1302 29.5443 21.2643 29.5222 21.3979ZM29.5935 20.8822C29.6052 20.7835 29.6157 20.6846 29.6248 20.5854C29.6159 20.6846 29.6052 20.7835 29.5935 20.8822ZM37.3259 18.8109C37.3369 19.074 37.3435 19.338 37.3435 19.6029L37.3386 19.1537C37.3359 19.0393 37.3307 18.925 37.3259 18.8109ZM7.89624 18.7934L7.87476 19.1654L7.89722 18.7943C7.9061 18.6768 7.91592 18.5595 7.92847 18.4428C7.91592 18.5592 7.90511 18.6761 7.89624 18.7934ZM5.94702 7.517C2.97015 10.6688 1.28156 14.7416 1.15601 19.0863H7.79956C7.84708 18.1151 8.01827 17.1667 8.30444 16.2641C8.30459 16.2594 8.30488 16.2539 8.30542 16.2484C8.30625 16.2405 8.30993 16.2291 8.31421 16.2162H8.31323C8.32135 16.1838 8.33605 16.1584 8.34741 16.141C8.82864 14.7016 9.60133 13.367 10.6472 12.2172L5.94702 7.517ZM26.8943 12.2172C28.6201 14.1152 29.618 16.5207 29.7361 19.0863H36.3865C36.2609 14.7473 34.5716 10.6747 31.5945 7.517L26.8943 12.2172ZM8.41968 16.1752C8.40772 16.1931 8.39638 16.2118 8.39038 16.2357L8.42065 16.1752C8.48123 15.9935 8.54609 15.8133 8.61597 15.6352V15.6342C8.54591 15.8127 8.48038 15.9931 8.41968 16.1752ZM8.96167 14.8451C8.91983 14.9312 8.87914 15.0178 8.8396 15.1049L8.96265 14.8451C9.00463 14.7587 9.04727 14.6726 9.09155 14.5873L8.96167 14.8451ZM9.36987 14.0834C9.3212 14.1662 9.2737 14.2495 9.22729 14.3334L9.37085 14.0834C9.4196 14.0005 9.46925 13.918 9.52026 13.8363L9.36987 14.0834ZM10.0398 13.0795C9.97761 13.1626 9.91583 13.2458 9.8562 13.3305C9.91582 13.2458 9.97769 13.1627 10.0398 13.0795ZM10.1863 12.8852C10.1694 12.9067 10.1532 12.9289 10.1365 12.9506C10.2125 12.8518 10.2901 12.754 10.3699 12.6576L10.1863 12.8852ZM34.447 11.3666C34.5098 11.4858 34.5716 11.6055 34.6316 11.726L34.448 11.3666C34.3851 11.2473 34.3203 11.129 34.2546 11.0111L34.447 11.3666ZM26.1619 11.5912L25.7976 11.269L25.7996 11.2709C25.9223 11.375 26.043 11.4823 26.1619 11.5922L30.9734 6.78067L30.9724 6.77969L26.1619 11.5912ZM11.7371 11.2709C11.6163 11.3729 11.4965 11.4767 11.3796 11.5844L11.3806 11.5854C11.4975 11.4777 11.6164 11.3729 11.7371 11.2709ZM19.2908 8.64005C21.8559 8.75796 24.2609 9.7508 26.1589 11.4818L30.8591 6.78165C27.7075 3.79933 23.6354 2.1151 19.2908 1.98965V8.64005ZM18.2517 1.98965C13.9069 2.11516 9.83419 3.80471 6.68237 6.77579L11.3826 11.476C13.2806 9.75037 15.6862 8.75222 18.2517 8.63419V1.98965ZM12.0828 10.9906C11.9757 11.0739 11.8697 11.159 11.7654 11.2465C11.8697 11.1589 11.9757 11.0739 12.0828 10.9906ZM12.5085 10.6742C12.3867 10.7599 12.2669 10.849 12.1482 10.9398C12.3944 10.7512 12.6475 10.5736 12.907 10.4076L12.5085 10.6742ZM14.0154 9.78653C13.9405 9.82289 13.8658 9.85975 13.7917 9.89786C13.8658 9.85977 13.9405 9.82287 14.0154 9.78653ZM14.3113 9.64786C14.2666 9.66788 14.2228 9.68972 14.1785 9.71036C14.2228 9.68974 14.2666 9.66787 14.3113 9.64786ZM14.5974 9.52481C14.5594 9.54054 14.5219 9.55747 14.4841 9.57364C14.5413 9.54921 14.5984 9.52481 14.656 9.50137L14.5974 9.52481ZM15.9509 9.0668C15.7971 9.1077 15.6445 9.15205 15.4929 9.19962L15.9519 9.0668C16.1058 9.02588 16.2608 8.98867 16.4167 8.9545L15.9509 9.0668ZM31.9939 7.83633C31.9554 7.79315 31.9176 7.74931 31.8787 7.70645L31.5974 7.40372C31.7325 7.54577 31.864 7.69061 31.9939 7.83633ZM29.8562 5.79922C29.7829 5.74002 29.7077 5.68333 29.6335 5.6254C29.7077 5.68332 29.7829 5.74003 29.8562 5.79922ZM7.02319 5.21036C6.92182 5.29349 6.82128 5.37783 6.72144 5.46329C6.82128 5.37783 6.92184 5.29351 7.02319 5.21036ZM29.324 5.38712C29.2506 5.3323 29.1764 5.27859 29.1023 5.22501C29.1765 5.27857 29.2505 5.33232 29.324 5.38712ZM7.35815 4.93985C7.32773 4.96364 7.29861 4.9891 7.26831 5.01309C7.41842 4.89411 7.56914 4.7764 7.72241 4.66251L7.35815 4.93985ZM28.7673 4.98868C28.6954 4.93922 28.6231 4.89051 28.5505 4.84219C28.6231 4.8905 28.6954 4.93924 28.7673 4.98868ZM8.84741 3.88907C8.7198 3.96999 8.59333 4.05293 8.46753 4.13712L8.84839 3.88907C8.97612 3.80807 9.10463 3.7285 9.23413 3.65079L8.84741 3.88907ZM10.0222 3.20352C9.88918 3.27467 9.75711 3.34778 9.62573 3.42227L10.0222 3.2045C10.1553 3.13332 10.2889 3.06333 10.4236 2.99551L10.0222 3.20352ZM24.0339 2.69376C24.1626 2.73356 24.2911 2.77407 24.4187 2.8168L24.0349 2.69376C23.9059 2.65384 23.7763 2.61548 23.6462 2.57852L24.0339 2.69376ZM11.24 2.6088C11.1022 2.66986 10.9652 2.7328 10.8289 2.79727L11.24 2.60977C11.3777 2.54873 11.5159 2.48868 11.655 2.43106L11.24 2.6088ZM12.9255 1.95938C12.7823 2.00662 12.6398 2.05611 12.4978 2.10684L12.9255 1.96036C13.0685 1.9132 13.212 1.8673 13.3562 1.82364L12.9255 1.95938ZM17.5046 1.94766C17.4525 1.95133 17.4005 1.95624 17.3484 1.96036C17.5373 1.94542 17.7267 1.93224 17.9167 1.92325L17.5046 1.94766Z" fill="white"/>
</svg>
